<svg width="15" height="15" viewBox="0 0 15 15" fill="none" xmlns="http://www.w3.org/2000/svg">
<g clip-path="url(#clip0)">
<path d="M0.204274 7.99318L4.66803 12.4569C4.94037 12.7293 5.38206 12.7293 5.65441 12.4569C5.92681 12.1845 5.92681 11.743 5.65441 11.4706L2.3813 8.19745L14.3025 8.19745C14.6877 8.19745 15 7.88516 15 7.49999C15 7.11488 14.6877 6.80253 14.3025 6.80253L2.3813 6.80253L5.65429 3.52942C5.92669 3.25702 5.92669 2.81545 5.65429 2.54305C5.51815 2.40696 5.3396 2.33877 5.16111 2.33877C4.98261 2.33877 4.80412 2.40696 4.66792 2.54305L0.204274 7.0068C-0.0681267 7.2792 -0.0681267 7.72078 0.204274 7.99318Z" fill="#153C55"/>
</g>
<defs>
<clipPath id="clip0">
<rect width="15" height="15" fill="white" transform="translate(15 15) rotate(-180)"/>
</clipPath>
</defs>
</svg>
