<svg width="15" height="15" viewBox="0 0 15 15" fill="none" xmlns="http://www.w3.org/2000/svg">
<g clip-path="url(#clip0)">
<path d="M14.7957 7.00682L10.332 2.54306C10.0596 2.27072 9.61794 2.27072 9.34559 2.54306C9.07319 2.81547 9.07319 3.25704 9.34559 3.52944L12.6187 6.80255L0.697462 6.80255C0.312295 6.80255 0 7.11484 0 7.50001C0 7.88512 0.312295 8.19747 0.697462 8.19747L12.6187 8.19747L9.34571 11.4706C9.07331 11.743 9.07331 12.1846 9.34571 12.457C9.48185 12.593 9.6604 12.6612 9.83889 12.6612C10.0174 12.6612 10.1959 12.593 10.3321 12.457L14.7957 7.9932C15.0681 7.7208 15.0681 7.27922 14.7957 7.00682Z" fill="#153C55"/>
</g>
<defs>
<clipPath id="clip0">
<rect width="15" height="15" fill="white"/>
</clipPath>
</defs>
</svg>
