<svg width="15" height="15" viewBox="0 0 15 15" fill="none" xmlns="http://www.w3.org/2000/svg">
<path d="M5.5 13C5.5 14.1027 6.39725 15 7.5 15C8.60275 15 9.5 14.1027 9.5 13C9.5 11.8973 8.60275 11 7.5 11C6.39725 11 5.5 11.8973 5.5 13Z" fill="#153C55"/>
<path d="M5.5 2C5.5 3.10275 6.39725 4 7.5 4C8.60275 4 9.5 3.10275 9.5 2C9.5 0.89725 8.60275 0 7.5 0C6.39725 0 5.5 0.89725 5.5 2Z" fill="#153C55"/>
<path d="M5.5 7.5C5.5 8.60275 6.39725 9.5 7.5 9.5C8.60275 9.5 9.5 8.60275 9.5 7.5C9.5 6.39725 8.60275 5.5 7.5 5.5C6.39725 5.5 5.5 6.39725 5.5 7.5Z" fill="#153C55"/>
</svg>
